<?xml version="1.0" encoding="utf-8"?>
<svg xmlns="http://www.w3.org/2000/svg" viewBox="0 0 30 30" fill="#ffffff"><path style="line-height:normal;text-indent:0;text-align:start;text-decoration-line:none;text-decoration-style:solid;text-decoration-color:#000;text-transform:none;block-progression:tb;isolation:auto;mix-blend-mode:normal" d="M 23.207031 2.9472656 L 20.539062 10.027344 C 22.311062 10.163344 23.895734 10.955063 25.052734 12.164062 L 27.865234 4.703125 L 23.207031 2.9472656 z M 20 12 C 17.239 12 15 14.239 15 17 C 15 18.724 15 24 12 24 A 1 1 0 0 0 11 25 A 1 1 0 0 0 12 26 A 1 1 0 0 0 12.083984 25.996094 C 21.022864 25.956109 25 19.752102 25 17 C 25 14.239 22.761 12 20 12 z M 4 24 A 1.0001 1.0001 0 1 0 4 26 L 8 26 A 1.0001 1.0001 0 1 0 8 24 L 4 24 z" font-weight="400" font-family="sans-serif" white-space="normal" overflow="visible" fill="#ffffff"/></svg>
