<?xml version="1.0" encoding="utf-8"?>
<svg xmlns="http://www.w3.org/2000/svg" viewBox="0 0 30 30" fill="#ffffff"><path d="M 6 4 C 5.448 4 5 4.448 5 5 L 5 21 C 5 21.552 5.448 22 6 22 L 10 22 C 10.552 22 11 21.552 11 21 L 11 5 C 11 4.448 10.552 4 10 4 L 6 4 z M 14 4 C 13.448 4 13 4.448 13 5 L 13 21 C 13 21.552 13.448 22 14 22 L 18 22 C 18.552 22 19 21.552 19 21 L 19 5 C 19 4.448 18.552 4 18 4 L 14 4 z M 6.5 7 L 9.5 7 C 9.776 7 10 7.224 10 7.5 C 10 7.776 9.776 8 9.5 8 L 6.5 8 C 6.224 8 6 7.776 6 7.5 C 6 7.224 6.224 7 6.5 7 z M 14.5 7 L 17.5 7 C 17.776 7 18 7.224 18 7.5 C 18 7.776 17.776 8 17.5 8 L 14.5 8 C 14.224 8 14 7.776 14 7.5 C 14 7.224 14.224 7 14.5 7 z M 22 7 C 21.448 7 21 7.448 21 8 L 21 21 C 21 21.552 21.448 22 22 22 L 24 22 C 24.552 22 25 21.552 25 21 L 25 8 C 25 7.448 24.552 7 24 7 L 22 7 z M 22.5 10 L 23.5 10 C 23.776 10 24 10.224 24 10.5 C 24 10.776 23.776 11 23.5 11 L 22.5 11 C 22.224 11 22 10.776 22 10.5 C 22 10.224 22.224 10 22.5 10 z M 6.5 16 L 9.5 16 C 9.776 16 10 16.224 10 16.5 C 10 16.776 9.776 17 9.5 17 L 6.5 17 C 6.224 17 6 16.776 6 16.5 C 6 16.224 6.224 16 6.5 16 z M 14.5 16 L 17.5 16 C 17.776 16 18 16.224 18 16.5 C 18 16.776 17.776 17 17.5 17 L 14.5 17 C 14.224 17 14 16.776 14 16.5 C 14 16.224 14.224 16 14.5 16 z M 22.5 16 L 23.5 16 C 23.776 16 24 16.224 24 16.5 C 24 16.776 23.776 17 23.5 17 L 22.5 17 C 22.224 17 22 16.776 22 16.5 C 22 16.224 22.224 16 22.5 16 z M 6.5 18 L 9.5 18 C 9.776 18 10 18.224 10 18.5 C 10 18.776 9.776 19 9.5 19 L 6.5 19 C 6.224 19 6 18.776 6 18.5 C 6 18.224 6.224 18 6.5 18 z M 14.5 18 L 17.5 18 C 17.776 18 18 18.224 18 18.5 C 18 18.776 17.776 19 17.5 19 L 14.5 19 C 14.224 19 14 18.776 14 18.5 C 14 18.224 14.224 18 14.5 18 z M 22.5 18 L 23.5 18 C 23.776 18 24 18.224 24 18.5 C 24 18.776 23.776 19 23.5 19 L 22.5 19 C 22.224 19 22 18.776 22 18.5 C 22 18.224 22.224 18 22.5 18 z M 7.984375 23.986328 A 1.0001 1.0001 0 0 0 7.8398438 24 L 4 24 A 1.0001 1.0001 0 1 0 4 26 L 7 26 L 7 27 A 1.0001 1.0001 0 1 0 9 27 L 9 26 L 21 26 L 21 27 A 1.0001 1.0001 0 1 0 23 27 L 23 26 L 26 26 A 1.0001 1.0001 0 1 0 26 24 L 22.154297 24 A 1.0001 1.0001 0 0 0 21.984375 23.986328 A 1.0001 1.0001 0 0 0 21.839844 24 L 8.1542969 24 A 1.0001 1.0001 0 0 0 7.984375 23.986328 z" fill="#ffffff"/></svg>
