<?xml version="1.0" encoding="utf-8"?>
<svg xmlns="http://www.w3.org/2000/svg" viewBox="0 0 30 30" fill="#ffffff"><path style="line-height:normal;text-indent:0;text-align:start;text-decoration-line:none;text-decoration-style:solid;text-decoration-color:#000;text-transform:none;block-progression:tb;isolation:auto;mix-blend-mode:normal" d="M 6 4 A 1 1 0 0 0 5.03125 4.7578125 L 5.0292969 4.7597656 A 1 1 0 0 0 5.0195312 4.8007812 L 3.03125 12.753906 A 1 1 0 0 0 3 13 A 1 1 0 0 0 4 14 L 4 24 C 4 25.093063 4.9069372 26 6 26 L 24 26 C 25.093063 26 26 25.093063 26 24 L 26 14 A 1 1 0 0 0 27 13 A 1 1 0 0 0 26.96875 12.753906 L 24.970703 4.7597656 L 24.96875 4.7578125 A 1 1 0 0 0 24 4 L 15 4 L 6 4 z M 15 8 L 21 14 L 24 14 L 24 24 L 17 24 L 17 19 C 17 17.895 16.105 17 15 17 C 13.895 17 13 17.895 13 19 L 13 24 L 6 24 L 6 14 L 9 14 L 15 8 z M 8 17 L 8 20 L 11 20 L 11 17 L 8 17 z M 19 17 L 19 20 L 22 20 L 22 17 L 19 17 z" font-weight="400" font-family="sans-serif" white-space="normal" overflow="visible" fill="#ffffff"/></svg>
