<?xml version="1.0" encoding="utf-8"?>
<svg xmlns="http://www.w3.org/2000/svg" viewBox="0 0 30 30" fill="#ffffff"><path d="M 15 3 C 8.373 3 3 8.373 3 15 C 3 21.627 8.373 27 15 27 C 18.953 27 22.448766 25.079859 24.634766 22.130859 L 15 16 L 25.554688 9.2832031 C 23.522687 5.5402031 19.558 3 15 3 z M 22 14.5 A 1.5 1.5 0 0 0 20.5 16 A 1.5 1.5 0 0 0 22 17.5 A 1.5 1.5 0 0 0 23.5 16 A 1.5 1.5 0 0 0 22 14.5 z M 28 14.5 A 1.5 1.5 0 0 0 26.5 16 A 1.5 1.5 0 0 0 28 17.5 A 1.5 1.5 0 0 0 29.5 16 A 1.5 1.5 0 0 0 28 14.5 z" fill="#ffffff"/></svg>
