<?xml version="1.0" encoding="utf-8"?>
<svg xmlns="http://www.w3.org/2000/svg" viewBox="0 0 30 30" fill="#ffffff"><path d="M15.707,17.707C15.512,17.902,15.256,18,15,18s-0.512-0.098-0.707-0.293l-5-5c-0.391-0.391-0.391-1.023,0-1.414 s1.023-0.391,1.414,0L15,15.586l9.866-9.866C23.702,4.655,22.157,4,20.455,4C17,4,15,7,15,7s-2-3-5.455-3C5.93,4,3,6.93,3,10.545 c0,6.341,7.421,12.406,10.796,15.052l0.004-0.006C14.135,25.844,14.548,26,15,26s0.865-0.156,1.2-0.409l0.004,0.006 C19.579,22.951,27,16.886,27,10.545c0-1.187-0.321-2.297-0.873-3.257L15.707,17.707z" fill="#ffffff"/></svg>
