<?xml version="1.0" encoding="utf-8"?>
<svg xmlns="http://www.w3.org/2000/svg" viewBox="0 0 30 30" fill="#ffffff"><path d="M 17 1.0507812 L 17 10.585938 L 23.744141 3.8398438 C 21.892141 2.2738437 19.561 1.2627812 17 1.0507812 z M 14 3.0507812 C 8.172 3.5327813 3.5327813 8.172 3.0507812 14 L 14 14 L 14 3.0507812 z M 24.158203 7.2558594 L 16.414062 15 L 24.158203 22.744141 C 25.927203 20.653141 27 17.954 27 15 C 27 12.046 25.927203 9.3468594 24.158203 7.2558594 z M 3.0507812 16 C 3.5607813 22.158 8.71 27 15 27 C 17.954 27 20.653141 25.927203 22.744141 24.158203 L 14.585938 16 L 3.0507812 16 z" fill="#ffffff"/></svg>
