<?xml version="1.0" encoding="utf-8"?>
<svg xmlns="http://www.w3.org/2000/svg" viewBox="0 0 30 30" fill="#ffffff"><path d="M 22 5 C 18.167 5 17 6.4296719 17 8.6386719 C 17 9.7146719 17.544109 10.850875 18.412109 11.671875 C 19.104109 9.033875 20.931672 6.5844375 22.763672 5.0234375 C 22.520672 5.0094375 22.268 5 22 5 z M 24.783203 5.3769531 C 24.152203 5.7879531 23.425844 6.3943906 22.714844 7.1503906 C 24.316844 8.8943906 25.222469 10.431203 25.730469 11.533203 C 26.514469 10.725203 27 9.6556719 27 8.6386719 C 27 7.0976719 26.427203 5.9379531 24.783203 5.3769531 z M 7.6269531 6.0078125 C 6.5621094 6.0641113 5.5089844 6.3972656 4.7402344 7.0566406 C 3.4122344 8.1956406 3.0814844 9.9964219 3.0214844 11.607422 C 2.9974844 12.276422 2.9831094 13.165641 3.0371094 13.931641 C 3.0971094 14.779641 3.6357031 15.436922 4.3457031 15.919922 C 3.1847031 16.316922 2 16.936 2 19 L 10.179688 19 C 10.119687 18.795 10.069016 18.575031 10.041016 18.332031 C 9.9980156 17.963031 10.026187 17.599766 10.117188 17.259766 C 10.056188 16.984766 10.013859 16.671703 10.005859 16.345703 C 9.7628594 16.351703 9.4807187 16.333531 9.1367188 16.269531 C 9.0787188 16.257531 9.0218906 16.245422 8.9628906 16.232422 C 8.8628906 16.210422 8.7613438 16.187203 8.6523438 16.158203 C 8.6353438 16.154203 8.6185625 16.150484 8.6015625 16.146484 C 8.2655625 16.055484 7.8849375 15.927766 7.4609375 15.759766 C 6.2689375 15.241766 5.3146719 14.394359 5.2636719 13.068359 C 6.0396719 14.887359 8.2749844 14.630859 8.8339844 14.630859 C 9.3759844 14.630859 9.8437656 14.573328 10.259766 14.486328 C 10.677766 13.038328 11.604109 11.947391 12.912109 11.400391 C 12.877109 11.135391 12.83425 10.871375 12.78125 10.609375 C 12.46425 8.718375 11.600094 6.7493125 9.4960938 6.1953125 C 8.9080938 6.0408125 8.2658594 5.9740332 7.6269531 6.0078125 z M 7.8417969 8.0078125 C 8.2177871 7.9752695 8.605875 8.0400156 8.953125 8.2128906 C 10.062125 8.7638906 10.131953 10.172594 9.8769531 11.183594 C 9.6899531 11.895594 9.1449531 12.882016 8.3769531 13.166016 C 7.3779531 13.536016 6.6394063 12.351344 6.3164062 11.652344 C 5.9354063 10.822344 5.8554063 9.7476406 6.3164062 8.9316406 C 6.6232813 8.3872656 7.2151465 8.0620508 7.8417969 8.0078125 z M 21.736328 8.3066406 C 20.802328 9.5446406 20.029187 11.014547 19.742188 12.560547 C 19.967188 13.046547 20.340953 13.496031 20.501953 13.582031 L 20.501953 14.666016 C 20.412953 14.956016 20.2075 15.157359 19.9375 15.318359 C 19.9755 15.611359 20 15.919 20 16.25 C 20 16.624 19.951719 16.971484 19.886719 17.271484 C 19.975719 17.607484 20.003937 17.968031 19.960938 18.332031 C 19.931938 18.576031 19.880312 18.794 19.820312 19 L 28 19 C 28 15.208 24 16.292016 23.5 14.666016 L 23.5 13.582031 C 23.662 13.495031 24.040625 13.037875 24.265625 12.546875 C 24.341625 12.515875 24.410375 12.471547 24.484375 12.435547 C 24.082375 11.491547 23.291328 10.030641 21.736328 8.3066406 z M 15 13 C 12.879 13 12 14.474953 12 16.251953 C 12 16.848953 12.263672 17.449219 12.263672 17.449219 C 12.157672 17.515219 11.983344 17.726609 12.027344 18.099609 C 12.109344 18.794609 12.387453 18.969375 12.564453 18.984375 C 12.632453 19.632375 13.275 20.462984 13.5 20.583984 L 13.5 21.667969 C 13 23.292969 9 22.208 9 26 L 21 26 C 21 22.208 17 23.292016 16.5 21.666016 L 16.5 20.582031 C 16.725 20.461031 17.367547 19.632375 17.435547 18.984375 C 17.612547 18.969375 17.890656 18.792656 17.972656 18.097656 C 18.016656 17.724656 17.842328 17.515219 17.736328 17.449219 C 17.736328 17.449219 18 16.906 18 16.25 C 18 14.934 17.523 13.8125 16.5 13.8125 C 16.5 13.8125 16.145 13 15 13 z" fill="#ffffff"/></svg>
