<?xml version="1.0" encoding="utf-8"?>
<svg xmlns="http://www.w3.org/2000/svg" viewBox="0 0 30 30" fill="#ffffff"><path style="line-height:normal;text-indent:0;text-align:start;text-decoration-line:none;text-decoration-style:solid;text-decoration-color:#000;text-transform:none;block-progression:tb;isolation:auto;mix-blend-mode:normal" d="M 24.447266 3 C 23.879228 3 23.336231 3.2429081 22.957031 3.6660156 L 13.652344 14.048828 C 12.866283 12.47013 14 10.852708 14 9 C 11.511 9 10 9.7580938 10 11.871094 C 10 13.013094 9.1353594 14 7.8183594 14 C 7.0063594 14 5.7301406 14.35775 4.6191406 15.46875 C 2.4531406 17.68975 2.2887812 21.021516 5.1757812 23.853516 C 8.0637812 26.741516 11.339859 26.519516 13.505859 24.353516 C 14.782859 23.076516 14.782219 21.910453 14.949219 20.689453 C 15.228219 18.411453 19 19.475 19 16 C 16.962836 16 15.778947 15.711992 15.101562 15.429688 L 22.697266 6.953125 A 1 1 0 0 0 23 7 A 1 1 0 0 0 24 6 A 1 1 0 0 0 23.914062 5.5957031 L 24.447266 5 L 26 5 A 1.0001 1.0001 0 1 0 26 3 L 24.447266 3 z M 10.25 16 C 10.442 16 10.63475 16.07225 10.78125 16.21875 L 12.78125 18.21875 C 13.07325 18.51275 13.072297 18.986297 12.779297 19.279297 C 12.633297 19.425297 12.442 19.5 12.25 19.5 C 12.058 19.5 11.866703 19.426297 11.720703 19.279297 L 9.7207031 17.279297 C 9.4277031 16.986297 9.4277031 16.51175 9.7207031 16.21875 C 9.8672031 16.07225 10.058 16 10.25 16 z M 7.75 18.5 C 7.942 18.5 8.13475 18.57225 8.28125 18.71875 L 10.28125 20.71875 C 10.57325 21.01275 10.572297 21.486297 10.279297 21.779297 C 10.133297 21.926297 9.942 22 9.75 22 C 9.558 22 9.3667031 21.926297 9.2207031 21.779297 L 7.2207031 19.779297 C 6.9277031 19.486297 6.9277031 19.01175 7.2207031 18.71875 C 7.3672031 18.57225 7.558 18.5 7.75 18.5 z" font-weight="400" font-family="sans-serif" white-space="normal" overflow="visible" fill="#ffffff"/></svg>
