<?xml version="1.0" encoding="utf-8"?>
<svg xmlns="http://www.w3.org/2000/svg" viewBox="0 0 30 30" fill="#ffffff"><path style="line-height:normal;text-indent:0;text-align:start;text-decoration-line:none;text-decoration-style:solid;text-decoration-color:#000;text-transform:none;block-progression:tb;isolation:auto;mix-blend-mode:normal" d="M 13.414062 2.2285156 C 13.284484 2.219125 13.152234 2.2347969 13.021484 2.2792969 L 4.6894531 5.1132812 C 4.1664531 5.2912813 3.8864531 5.8598125 4.0644531 6.3828125 L 5.1210938 9.4863281 C 5.2990937 10.009328 5.868625 10.288328 6.390625 10.111328 L 9.9863281 8.8886719 L 11.248047 12.332031 A 1.0001 1.0001 0 0 0 11.005859 12.890625 L 10.994141 13.001953 L 10.193359 16.867188 L 7.3007812 19 L 5 19 C 3.895 19 3 19.895 3 21 L 3 26 L 9 26 L 9 21.726562 L 12.166016 18.162109 L 12.169922 18.160156 A 1.0001 1.0001 0 0 0 12.513672 17.507812 L 12.994141 13.109375 A 1.0001 1.0001 0 0 0 12.724609 12.296875 L 11.3125 8.4375 L 14.720703 7.2773438 C 15.243703 7.0993437 15.523703 6.5327656 15.345703 6.0097656 L 14.289062 2.9042969 C 14.155563 2.5120469 13.802797 2.2566875 13.414062 2.2285156 z M 16.080078 4.5195312 L 17.160156 7.7597656 L 14.640625 8.5996094 L 14.400391 9.4394531 L 18.683594 10.849609 L 17.480469 14.132812 A 1.0001 1.0001 0 0 0 17 15 L 17 19.609375 A 1.0001 1.0001 0 0 0 17.384766 20.396484 L 21 23.751953 L 21 26 L 27 26 L 27 23 C 27 21.895 26.105 21 25 21 L 22.150391 21 L 19.339844 19.222656 L 19 15 A 1.0001 1.0001 0 0 0 18.851562 14.462891 L 20.013672 11.289062 L 23.654297 12.488281 C 24.177297 12.660281 24.741016 12.376516 24.916016 11.853516 L 25.960938 8.7226562 C 26.136937 8.1936563 25.846453 7.622125 25.314453 7.453125 L 16.080078 4.5195312 z M 6.5 12 A 2.5 2.5 0 0 0 4 14.5 A 2.5 2.5 0 0 0 6.5 17 A 2.5 2.5 0 0 0 9 14.5 A 2.5 2.5 0 0 0 6.5 12 z M 23.5 14 A 2.5 2.5 0 0 0 21 16.5 A 2.5 2.5 0 0 0 23.5 19 A 2.5 2.5 0 0 0 26 16.5 A 2.5 2.5 0 0 0 23.5 14 z" font-weight="400" font-family="sans-serif" white-space="normal" overflow="visible" fill="#ffffff"/></svg>
