<?xml version="1.0" encoding="utf-8"?>
<svg xmlns="http://www.w3.org/2000/svg" viewBox="0 0 30 30" fill="#ffffff"><path style="line-height:normal;text-indent:0;text-align:start;text-decoration-line:none;text-decoration-style:solid;text-decoration-color:#000;text-transform:none;block-progression:tb;isolation:auto;mix-blend-mode:normal" d="M 6 3 A 1.0001 1.0001 0 1 0 6 5 L 24 5 A 1.0001 1.0001 0 1 0 24 3 L 6 3 z M 4 7 A 1.0001 1.0001 0 1 0 4 9 L 26 9 A 1.0001 1.0001 0 1 0 26 7 L 4 7 z M 4 11 A 2 2 0 0 0 2.046875 12.582031 C 2.0445769 12.592566 2.0411905 12.602689 2.0390625 12.613281 A 2 2 0 0 0 2 13 L 2 25 A 2 2 0 0 0 3.5820312 26.953125 C 3.5925658 26.955423 3.602689 26.95881 3.6132812 26.960938 A 2 2 0 0 0 4 27 L 26 27 A 2 2 0 0 0 27.953125 25.417969 C 27.955423 25.407434 27.95881 25.397311 27.960938 25.386719 A 2 2 0 0 0 28 25 L 28 13 A 2 2 0 0 0 26.417969 11.046875 C 26.407434 11.044577 26.397311 11.04119 26.386719 11.039062 A 2 2 0 0 0 26 11 L 4 11 z M 6 13 L 24 13 A 2 2 0 0 0 26 15 L 26 23 A 2 2 0 0 0 24 25 L 6 25 A 2 2 0 0 0 4 23 L 4 15 A 2 2 0 0 0 6 13 z M 15 15 C 12.791 15 11 17.015 11 19.5 C 11 20.922 11.597672 22.175 12.513672 23 L 17.486328 23 C 18.402328 22.175 19 20.922 19 19.5 C 19 17.015 17.209 15 15 15 z M 7 18 A 1 1 0 0 0 6 19 A 1 1 0 0 0 7 20 A 1 1 0 0 0 8 19 A 1 1 0 0 0 7 18 z M 23 18 A 1 1 0 0 0 22 19 A 1 1 0 0 0 23 20 A 1 1 0 0 0 24 19 A 1 1 0 0 0 23 18 z" fill="#ffffff"/></svg>
