<?xml version="1.0" encoding="utf-8"?>
<svg xmlns="http://www.w3.org/2000/svg" viewBox="0 0 30 30" fill="#ffffff"><path style="line-height:normal;text-indent:0;text-align:start;text-decoration-line:none;text-decoration-style:solid;text-decoration-color:#000;text-transform:none;block-progression:tb;isolation:auto;mix-blend-mode:normal" d="M 23 3 C 19 3 15 5 15 10 C 15 11.14495 15.16959 12.035484 15.474609 12.734375 C 15.268194 13.210299 15.089973 13.679465 14.927734 14.142578 C 14.555256 13.352857 14.100903 12.612734 13.574219 11.925781 C 13.382101 11.675204 13.18125 11.430283 12.972656 11.191406 C 12.988706 11.068882 13 10.946803 13 10.832031 C 13 6.6660312 9.6660312 5 6.3320312 5 L 3 5 L 3 7.5 C 3 12.5 6.3320312 15 8.8320312 15 C 9.3360312 15 9.7755938 14.913969 10.183594 14.792969 C 9.4995937 13.790969 8.3406562 12.306141 6.7226562 10.994141 C 6.2936562 10.646141 6.2262188 10.016891 6.5742188 9.5878906 C 6.9222187 9.1588906 7.5514688 9.0904531 7.9804688 9.4394531 C 9.4068576 10.595757 10.848947 11.971916 11.589844 12.6875 C 11.718953 12.840128 11.866777 12.986648 11.986328 13.142578 C 13.258627 14.802033 14.003662 16.629437 14 18.998047 C 14.000044 19.002421 13.999949 19.007351 14 19.011719 L 15 19 L 16 19.001953 C 16.000007 18.997303 15.999998 18.992928 16 18.988281 C 15.98278 17.500702 16.531197 15.017276 17.769531 12.539062 C 18.072958 11.93183 18.417981 11.32414 18.802734 10.726562 C 19.507643 9.7209071 20.253801 8.7081308 20.945312 8.0136719 C 21.335313 7.6226719 21.968375 7.6197656 22.359375 8.0097656 C 22.751375 8.3997656 22.753281 9.0328281 22.363281 9.4238281 C 20.709281 11.084828 19.549844 12.9165 18.839844 14.9375 C 19.206844 14.9795 19.593 15 20 15 C 23 15 27 12 27 6 L 27 3 L 23 3 z M 15 21 C 13.318171 21 11.800298 21.694033 10.710938 22.808594 C 9.9288089 22.301474 9.0013685 22 8 22 C 5.239 22 3 24.239 3 27 L 9 27 L 13 27 L 19 27 L 24 27 L 27 27 C 27 24.791 25.209 23 23 23 C 22.691505 23 22.393919 23.043255 22.105469 23.109375 C 21.250187 22.425456 20.180024 22 19 22 C 18.789351 22 18.582715 22.017666 18.378906 22.042969 C 17.416556 21.385962 16.253303 21 15 21 z" font-weight="400" font-family="sans-serif" white-space="normal" overflow="visible" fill="#ffffff"/></svg>
