<?xml version="1.0" encoding="utf-8"?>
<svg xmlns="http://www.w3.org/2000/svg" viewBox="0 0 30 30" fill="#ffffff"><path style="line-height:normal;text-indent:0;text-align:start;text-decoration-line:none;text-decoration-style:solid;text-decoration-color:#000;text-transform:none;block-progression:tb;isolation:auto;mix-blend-mode:normal" d="M 11 4 A 1.0001 1.0001 0 1 0 11 6 L 11 12 L 11 13 L 11 14 L 4.4511719 22.734375 L 4.4511719 22.736328 A 2 2 0 0 0 4 24 A 2 2 0 0 0 6 26 L 15 26 L 24 26 A 2 2 0 0 0 26 24 A 2 2 0 0 0 25.548828 22.736328 A 2 2 0 0 0 25.548828 22.734375 L 19 14 L 19 13 L 19 12 L 19 6 A 1.0001 1.0001 0 1 0 19 4 L 11 4 z M 13 6 L 17 6 L 17 12 L 13 12 L 13 6 z M 14 14 C 14.552 14 15 14.448 15 15 C 15 15.552 14.552 16 14 16 C 13.448 16 13 15.552 13 15 C 13 14.448 13.448 14 14 14 z M 17.5 20 C 18.328 20 19 20.672 19 21.5 C 19 22.328 18.328 23 17.5 23 C 16.672 23 16 22.328 16 21.5 C 16 20.672 16.672 20 17.5 20 z" font-weight="400" font-family="sans-serif" white-space="normal" overflow="visible" fill="#ffffff"/></svg>
