<?xml version="1.0" encoding="utf-8"?>
<svg xmlns="http://www.w3.org/2000/svg" viewBox="0 0 30 30" fill="#ffffff"><path style="line-height:normal;text-indent:0;text-align:start;text-decoration-line:none;text-decoration-style:solid;text-decoration-color:#000;text-transform:none;block-progression:tb;isolation:auto;mix-blend-mode:normal" d="M 16 1 C 16 1 11 3.5472344 11 7.2402344 C 11 10.760234 14 11 14 11 C 14 11 13 9.9 13 8 C 13 6.149 14.945312 4.9980469 14.945312 4.9980469 L 15.539062 7.0019531 L 16.599609 6 C 16.599609 6 17 7.3101563 17 8.4101562 C 17 9.3101562 16.5 11 16.5 11 C 16.5 11 19 9.979 19 8 C 19 5.151 18 3 18 3 L 16.800781 3.6992188 L 16 1 z M 11 13 A 1.0001 1.0001 0 1 0 11 15 L 11.666016 15 L 13 17 L 17 17 L 18.333984 15 L 19 15 A 1.0001 1.0001 0 1 0 19 13 L 11 13 z M 13 19 L 14.001953 28.060547 A 1 1 0 0 0 14.001953 28.070312 L 14.005859 28.097656 A 1 1 0 0 0 15 29 A 1 1 0 0 0 15.994141 28.097656 L 15.994141 28.095703 L 17 19 L 15 19 L 13 19 z" font-weight="400" font-family="sans-serif" white-space="normal" overflow="visible" fill="#ffffff"/></svg>
