<?xml version="1.0" encoding="utf-8"?>
<svg xmlns="http://www.w3.org/2000/svg" viewBox="0 0 30 30" fill="#ffffff"><path d="M 20.498047 3 C 19.118047 3 18 4.12 18 5.5 C 18 6.88 19.118047 8 20.498047 8 C 21.881047 8 23 6.88 23 5.5 C 23 4.12 21.881047 3 20.498047 3 z M 11 8 A 1.0001 1.0001 0 0 0 10.292969 8.2929688 L 7.2929688 11.292969 A 1 1 0 0 0 7 12 A 1 1 0 0 0 8 13 A 1 1 0 0 0 8.7070312 12.707031 A 1 1 0 0 0 8.7167969 12.697266 L 11.212891 10.201172 L 13.533203 10.587891 L 11.392578 14.154297 L 11.394531 14.162109 C 11.147531 14.550109 11 15.007 11 15.5 C 11 16.165 11.2645 16.764891 11.6875 17.212891 L 11.6875 17.222656 L 15.425781 21.085938 L 16 26 A 1 1 0 0 0 17 27 A 1 1 0 0 0 18 26 L 18 20 A 1.0001 1.0001 0 0 0 17.818359 19.425781 L 15.787109 16.523438 L 18.640625 11.792969 L 18.634766 11.783203 C 18.861766 11.406203 19 10.971 19 10.5 C 19 9.12 17.882 8.001 16.5 8 L 16.498047 8 L 11 8 z M 20.292969 11.875 L 19 14 L 19.216797 14.109375 L 20.492188 14.861328 A 1.0001 1.0001 0 0 0 21 15 L 25 15 A 1 1 0 0 0 26 14 A 1 1 0 0 0 25 13 L 21.654297 13 L 20.292969 11.875 z M 9.8710938 17.609375 L 8.3691406 19.402344 L 4 20 A 1 1 0 0 0 3 21 A 1 1 0 0 0 4 22 L 9 22 A 1.0001 1.0001 0 0 0 9.7207031 21.691406 L 9.7890625 21.619141 L 11.898438 19.699219 L 9.8710938 17.609375 z" fill="#ffffff"/></svg>
