<?xml version="1.0" encoding="utf-8"?>
<svg xmlns="http://www.w3.org/2000/svg" viewBox="0 0 30 30" fill="#ffffff"><path d="M 15 3 C 8.373 3 3 8.373 3 15 C 3 21.627 8.373 27 15 27 C 21.627 27 27 21.627 27 15 C 27 8.373 21.627 3 15 3 z M 15 5 C 16.657 5 18 5.343 18 7 C 18 8.657 16.657 10 15 10 C 13.343 10 12 8.657 12 7 C 12 5.343 13.343 5 15 5 z M 7.765625 9.5585938 C 7.9377148 9.5724961 8.1213594 9.6117812 8.3183594 9.6757812 C 9.8943594 10.187781 10.756141 11.879078 10.244141 13.455078 C 9.7331406 15.031078 8.0408438 15.892859 6.4648438 15.380859 C 4.8888437 14.868859 4.9762813 13.486156 5.4882812 11.910156 C 5.9362813 10.531156 6.5609961 9.4612773 7.765625 9.5585938 z M 22.234375 9.5585938 C 23.439004 9.4612773 24.063719 10.531156 24.511719 11.910156 C 25.023719 13.486156 25.110156 14.868859 23.535156 15.380859 C 21.959156 15.892859 20.267859 15.031078 19.755859 13.455078 C 19.243859 11.879078 20.105641 10.187781 21.681641 9.6757812 C 21.878641 9.6117812 22.062285 9.5724961 22.234375 9.5585938 z M 15 13 C 16.105 13 17 13.895 17 15 C 17 16.105 16.105 17 15 17 C 13.895 17 13 16.105 13 15 C 13 13.895 13.895 13 15 13 z M 19.597656 18.472656 C 20.560225 18.439736 21.520781 18.870859 22.128906 19.708984 C 23.101906 21.049984 22.218906 22.115844 20.878906 23.089844 C 19.538906 24.063844 18.249391 24.575375 17.275391 23.234375 C 16.301391 21.894375 16.598453 20.017922 17.939453 19.044922 C 18.441953 18.679672 19.020115 18.492408 19.597656 18.472656 z M 10.402344 18.474609 C 10.979762 18.494238 11.558047 18.679672 12.060547 19.044922 C 13.400547 20.018922 13.698609 21.894375 12.724609 23.234375 C 11.750609 24.574375 10.462094 24.063844 9.1210938 23.089844 C 7.7800938 22.115844 6.8970938 21.048984 7.8710938 19.708984 C 8.4798438 18.871484 9.4399805 18.441895 10.402344 18.474609 z M 27 22.183594 C 26.433 23.128594 25.766 24.006063 25 24.789062 L 25 25 C 25 27.206 26.794 29 29 29 C 29.553 29 30 28.553 30 28 C 30 27.447 29.553 27 29 27 C 27.897 27 27 26.103 27 25 L 27 22.183594 z" fill="#ffffff"/></svg>
