<?xml version="1.0" encoding="utf-8"?>
<svg xmlns="http://www.w3.org/2000/svg" viewBox="0 0 50 50" fill="#000000"><path style="line-height:normal;text-indent:0;text-align:start;text-decoration-line:none;text-decoration-style:solid;text-decoration-color:#000;text-transform:none;block-progression:tb;isolation:auto;mix-blend-mode:normal" d="M 32 0.17382812 L 32 4.84375 L 24 0.27734375 L 24 6.0253906 C 12.876805 6.5484735 4 15.748824 4 27 C 4 38.586407 13.413593 48 25 48 C 36.586407 48 46 38.586407 46 27 A 1.0001 1.0001 0 1 0 44 27 C 44 37.505593 35.505593 46 25 46 C 14.494407 46 6 37.505593 6 27 C 6 16.831946 13.963508 8.5726073 24 8.0507812 L 24 13.722656 L 32 9.15625 L 32 13.826172 L 33.539062 12.841797 L 42.677734 7 L 32 0.17382812 z M 26 3.7226562 L 31.742188 7 L 26 10.277344 L 26 7.1679688 A 1.0001 1.0001 0 0 0 26 6.8417969 L 26 3.7226562 z M 34 3.8261719 L 38.966797 7 L 34 10.173828 L 34 8.2890625 L 34 5.7109375 L 34 3.8261719 z M 19 20 C 19 22.25 17 23 15 23 L 15 25 L 19 25 L 19 36 L 19.099609 36 L 21 36 L 21 20 L 19 20 z M 25.25 20 L 24.15625 27.351562 L 25.890625 28.167969 C 26.554625 27.426969 27.506 27 28.5 27 C 30.43 27 32 28.57 32 30.5 C 32 32.43 30.43 34 28.5 34 C 26.529 34 25 32.388 25 31 L 23 31 C 23 33.663 25.57 36 28.5 36 C 31.533 36 34 33.532 34 30.5 C 34 27.468 31.533 25 28.5 25 C 27.8 25 27.114563 25.133719 26.476562 25.386719 L 26.986328 22 L 33 22 L 33 20 L 25.25 20 z" font-weight="400" font-family="sans-serif" white-space="normal" overflow="visible" fill="#000000"/></svg>
