<?xml version="1.0" encoding="utf-8"?>
<svg xmlns="http://www.w3.org/2000/svg" viewBox="0 0 50 50" fill="#000000"><path style="line-height:normal;text-indent:0;text-align:start;text-decoration-line:none;text-decoration-style:solid;text-decoration-color:#000;text-transform:none;block-progression:tb;isolation:auto;mix-blend-mode:normal" d="M 18 0.17382812 L 7.3222656 7 L 8.6386719 7.8417969 L 18 13.826172 L 18 9.15625 L 26 13.722656 L 26 8.0507812 C 36.036492 8.5726073 44 16.831946 44 27 C 44 37.505593 35.505593 46 25 46 C 14.494407 46 6 37.505593 6 27 A 1.0001 1.0001 0 1 0 4 27 C 4 38.586407 13.413593 48 25 48 C 36.586407 48 46 38.586407 46 27 C 46 15.748824 37.123195 6.5484735 26 6.0253906 L 26 0.27734375 L 18 4.84375 L 18 0.17382812 z M 24 3.7226562 L 24 6.8320312 A 1.0001 1.0001 0 0 0 24 7.1582031 L 24 10.277344 L 18.257812 7 L 24 3.7226562 z M 16 3.8261719 L 16 5.7109375 L 16 8.2890625 L 16 10.173828 L 11.033203 7 L 16 3.8261719 z M 19 19 C 19 21.25 17 22 15 22 L 15 24 L 19 24 L 19 35 L 19.099609 35 L 21 35 L 21 19 L 19 19 z M 25.25 19 L 24.15625 26.351562 L 25.890625 27.167969 C 26.554625 26.426969 27.506 26 28.5 26 C 30.43 26 32 27.57 32 29.5 C 32 31.43 30.43 33 28.5 33 C 26.529 33 25 31.388 25 30 L 23 30 C 23 32.663 25.57 35 28.5 35 C 31.533 35 34 32.532 34 29.5 C 34 26.468 31.533 24 28.5 24 C 27.8 24 27.114563 24.133719 26.476562 24.386719 L 26.986328 21 L 33 21 L 33 19 L 25.25 19 z" font-weight="400" font-family="sans-serif" white-space="normal" overflow="visible" fill="#000000"/></svg>
